<svg viewBox="0 0 408 84" xmlns="http://www.w3.org/2000/svg">
  <rect x="0" y="0" width="24" height="24" fill="#ffffff" stroke="#ccc" stroke-width="1"/>
  <rect x="24" y="0" width="24" height="24" fill="#f5f5f5"/>
  <rect x="48" y="0" width="24" height="24" fill="#c7cfcc"/>
  <rect x="72" y="0" width="24" height="24" fill="#819796"/>
  <rect x="96" y="0" width="24" height="24" fill="#577277"/>
  <rect x="120" y="0" width="24" height="24" fill="#253a5e"/>
  <rect x="144" y="0" width="24" height="24" fill="#172038"/>
  <text x="84.0" y="35" font-family="system-ui,sans-serif" font-size="9" fill="#577277" text-anchor="middle">neutrals</text>
  <rect x="180" y="0" width="24" height="24" fill="#73bed3"/>
  <rect x="204" y="0" width="24" height="24" fill="#4f8fba"/>
  <rect x="228" y="0" width="24" height="24" fill="#3c5e8b"/>
  <rect x="252" y="0" width="24" height="24" fill="#29adff"/>
  <text x="228.0" y="35" font-family="system-ui,sans-serif" font-size="9" fill="#577277" text-anchor="middle">blues</text>
  <rect x="288" y="0" width="24" height="24" fill="#e8e8e8"/>
  <rect x="312" y="0" width="24" height="24" fill="#e0e0e0"/>
  <rect x="336" y="0" width="24" height="24" fill="#d8d8d8"/>
  <text x="324.0" y="35" font-family="system-ui,sans-serif" font-size="9" fill="#577277" text-anchor="middle">grays</text>
  <rect x="0" y="46" width="24" height="24" fill="#0ced6a"/>
  <rect x="24" y="46" width="24" height="24" fill="#00d74e"/>
  <rect x="48" y="46" width="24" height="24" fill="#008f17"/>
  <text x="36.0" y="81" font-family="system-ui,sans-serif" font-size="9" fill="#577277" text-anchor="middle">greens</text>
  <rect x="84" y="46" width="24" height="24" fill="#ffcf45"/>
  <rect x="108" y="46" width="24" height="24" fill="#ffbd2c"/>
  <rect x="132" y="46" width="24" height="24" fill="#d37800"/>
  <text x="120.0" y="81" font-family="system-ui,sans-serif" font-size="9" fill="#577277" text-anchor="middle">ambers</text>
  <rect x="168" y="46" width="24" height="24" fill="#ff8680"/>
  <rect x="192" y="46" width="24" height="24" fill="#ff5a5b"/>
  <rect x="216" y="46" width="24" height="24" fill="#c62a34"/>
  <text x="204.0" y="81" font-family="system-ui,sans-serif" font-size="9" fill="#577277" text-anchor="middle">reds</text>
  <rect x="252" y="46" width="24" height="24" fill="#d7f0ef"/>
  <rect x="276" y="46" width="24" height="24" fill="#a8edea"/>
  <rect x="300" y="46" width="24" height="24" fill="#39dcd5"/>
  <text x="288.0" y="81" font-family="system-ui,sans-serif" font-size="9" fill="#577277" text-anchor="middle">cyans</text>
  <rect x="336" y="46" width="24" height="24" fill="#f9eff2"/>
  <rect x="360" y="46" width="24" height="24" fill="#fed6e3"/>
  <rect x="384" y="46" width="24" height="24" fill="#f07da2"/>
  <text x="372.0" y="81" font-family="system-ui,sans-serif" font-size="9" fill="#577277" text-anchor="middle">pinks</text>
</svg>
