<svg viewBox="0 0 490 95" xmlns="http://www.w3.org/2000/svg">
  <!-- Row 1: Neutrals, Blues, Button Grays -->
  <rect x="0" y="0" width="30" height="30" fill="#ffffff" stroke="#ccc" stroke-width="1"/>
  <rect x="30" y="0" width="30" height="30" fill="#f5f5f5"/>
  <rect x="60" y="0" width="30" height="30" fill="#c7cfcc"/>
  <rect x="90" y="0" width="30" height="30" fill="#819796"/>
  <rect x="120" y="0" width="30" height="30" fill="#577277"/>
  <rect x="150" y="0" width="30" height="30" fill="#253a5e"/>
  <rect x="180" y="0" width="30" height="30" fill="#172038"/>
  <text x="105" y="42" font-family="system-ui,sans-serif" font-size="9" fill="#577277" text-anchor="middle">neutrals</text>

  <rect x="220" y="0" width="30" height="30" fill="#73bed3"/>
  <rect x="250" y="0" width="30" height="30" fill="#4f8fba"/>
  <rect x="280" y="0" width="30" height="30" fill="#3c5e8b"/>
  <rect x="310" y="0" width="30" height="30" fill="#29adff"/>
  <text x="265" y="42" font-family="system-ui,sans-serif" font-size="9" fill="#577277" text-anchor="middle">blues</text>

  <rect x="350" y="0" width="30" height="30" fill="#e8e8e8"/>
  <rect x="380" y="0" width="30" height="30" fill="#e0e0e0"/>
  <rect x="410" y="0" width="30" height="30" fill="#d8d8d8"/>
  <text x="380" y="42" font-family="system-ui,sans-serif" font-size="9" fill="#577277" text-anchor="middle">grays</text>

  <!-- Row 2: Greens, Ambers, Reds, Cyans, Pinks -->
  <rect x="0" y="50" width="30" height="30" fill="#0ced6a"/>
  <rect x="30" y="50" width="30" height="30" fill="#00d74e"/>
  <rect x="60" y="50" width="30" height="30" fill="#008f17"/>
  <text x="45" y="92" font-family="system-ui,sans-serif" font-size="9" fill="#577277" text-anchor="middle">greens</text>

  <rect x="100" y="50" width="30" height="30" fill="#ffcf45"/>
  <rect x="130" y="50" width="30" height="30" fill="#ffbd2c"/>
  <rect x="160" y="50" width="30" height="30" fill="#d37800"/>
  <text x="145" y="92" font-family="system-ui,sans-serif" font-size="9" fill="#577277" text-anchor="middle">ambers</text>

  <rect x="200" y="50" width="30" height="30" fill="#ff8680"/>
  <rect x="230" y="50" width="30" height="30" fill="#ff5a5b"/>
  <rect x="260" y="50" width="30" height="30" fill="#c62a34"/>
  <text x="245" y="92" font-family="system-ui,sans-serif" font-size="9" fill="#577277" text-anchor="middle">reds</text>

  <rect x="300" y="50" width="30" height="30" fill="#d7f0ef"/>
  <rect x="330" y="50" width="30" height="30" fill="#a8edea"/>
  <rect x="360" y="50" width="30" height="30" fill="#39dcd5"/>
  <text x="345" y="92" font-family="system-ui,sans-serif" font-size="9" fill="#577277" text-anchor="middle">cyans</text>

  <rect x="400" y="50" width="30" height="30" fill="#f9eff2"/>
  <rect x="430" y="50" width="30" height="30" fill="#fed6e3"/>
  <rect x="460" y="50" width="30" height="30" fill="#f07da2"/>
  <text x="445" y="92" font-family="system-ui,sans-serif" font-size="9" fill="#577277" text-anchor="middle">pinks</text>
</svg>
