<svg viewBox="0 0 664 128" xmlns="http://www.w3.org/2000/svg">
  <rect x="0" y="0" width="40" height="40" fill="#ffffff" stroke="#ccc" stroke-width="1"/>
  <rect x="40" y="0" width="40" height="40" fill="#f5f5f5"/>
  <rect x="80" y="0" width="40" height="40" fill="#c7cfcc"/>
  <rect x="120" y="0" width="40" height="40" fill="#819796"/>
  <rect x="160" y="0" width="40" height="40" fill="#577277"/>
  <rect x="200" y="0" width="40" height="40" fill="#253a5e"/>
  <rect x="240" y="0" width="40" height="40" fill="#172038"/>
  <text x="140.0" y="54" font-family="system-ui,sans-serif" font-size="11" fill="#577277" text-anchor="middle">neutrals</text>
  <rect x="296" y="0" width="40" height="40" fill="#73bed3"/>
  <rect x="336" y="0" width="40" height="40" fill="#4f8fba"/>
  <rect x="376" y="0" width="40" height="40" fill="#3c5e8b"/>
  <rect x="416" y="0" width="40" height="40" fill="#29adff"/>
  <text x="376.0" y="54" font-family="system-ui,sans-serif" font-size="11" fill="#577277" text-anchor="middle">blues</text>
  <rect x="472" y="0" width="40" height="40" fill="#e8e8e8"/>
  <rect x="512" y="0" width="40" height="40" fill="#e0e0e0"/>
  <rect x="552" y="0" width="40" height="40" fill="#d8d8d8"/>
  <text x="532.0" y="54" font-family="system-ui,sans-serif" font-size="11" fill="#577277" text-anchor="middle">grays</text>
  <rect x="0" y="70" width="40" height="40" fill="#0ced6a"/>
  <rect x="40" y="70" width="40" height="40" fill="#00d74e"/>
  <rect x="80" y="70" width="40" height="40" fill="#008f17"/>
  <text x="60.0" y="124" font-family="system-ui,sans-serif" font-size="11" fill="#577277" text-anchor="middle">greens</text>
  <rect x="136" y="70" width="40" height="40" fill="#ffcf45"/>
  <rect x="176" y="70" width="40" height="40" fill="#ffbd2c"/>
  <rect x="216" y="70" width="40" height="40" fill="#d37800"/>
  <text x="196.0" y="124" font-family="system-ui,sans-serif" font-size="11" fill="#577277" text-anchor="middle">ambers</text>
  <rect x="272" y="70" width="40" height="40" fill="#ff8680"/>
  <rect x="312" y="70" width="40" height="40" fill="#ff5a5b"/>
  <rect x="352" y="70" width="40" height="40" fill="#c62a34"/>
  <text x="332.0" y="124" font-family="system-ui,sans-serif" font-size="11" fill="#577277" text-anchor="middle">reds</text>
  <rect x="408" y="70" width="40" height="40" fill="#d7f0ef"/>
  <rect x="448" y="70" width="40" height="40" fill="#a8edea"/>
  <rect x="488" y="70" width="40" height="40" fill="#39dcd5"/>
  <text x="468.0" y="124" font-family="system-ui,sans-serif" font-size="11" fill="#577277" text-anchor="middle">cyans</text>
  <rect x="544" y="70" width="40" height="40" fill="#f9eff2"/>
  <rect x="584" y="70" width="40" height="40" fill="#fed6e3"/>
  <rect x="624" y="70" width="40" height="40" fill="#f07da2"/>
  <text x="604.0" y="124" font-family="system-ui,sans-serif" font-size="11" fill="#577277" text-anchor="middle">pinks</text>
</svg>
